<svg width="19" height="19" viewBox="0 0 19 19" fill="none" xmlns="http://www.w3.org/2000/svg">
<path d="M15.675 16.1496C15.801 16.1496 15.9218 16.0996 16.0109 16.0105C16.0999 15.9214 16.15 15.8006 16.15 15.6746C16.15 15.5486 16.0999 15.4278 16.0109 15.3387C15.9218 15.2497 15.801 15.1996 15.675 15.1996H3.32498C3.199 15.1996 3.07818 15.2497 2.9891 15.3387C2.90002 15.4278 2.84998 15.5486 2.84998 15.6746C2.84998 15.8006 2.90002 15.9214 2.9891 16.0105C3.07818 16.0996 3.199 16.1496 3.32498 16.1496H15.675ZM4.74998 2.84961H6.64998V6.64961H2.84998V4.74961C2.84998 4.2457 3.05015 3.76243 3.40647 3.40611C3.76279 3.04979 4.24606 2.84961 4.74998 2.84961ZM2.84998 7.59961H6.64998V11.3996H3.32498C3.199 11.3996 3.07818 11.3496 2.9891 11.2605C2.90002 11.1714 2.84998 11.0506 2.84998 10.9246V7.59961ZM7.59998 7.59961V11.3996H11.4V7.59961H7.59998ZM11.4 2.84961H7.59998V6.64961H11.4V2.84961ZM12.35 11.3996V7.59961H16.15V10.9246C16.15 11.0506 16.0999 11.1714 16.0109 11.2605C15.9218 11.3496 15.801 11.3996 15.675 11.3996H12.35ZM12.35 2.84961H14.25C14.7539 2.84961 15.2372 3.04979 15.5935 3.40611C15.9498 3.76243 16.15 4.2457 16.15 4.74961V6.64961H12.35V2.84961Z" fill="#7539FF"/>
</svg>
