<svg width="24" height="24" viewBox="0 0 24 24" fill="none" xmlns="http://www.w3.org/2000/svg">
<path fill-rule="evenodd" clip-rule="evenodd" d="M17.6823 5C17.8939 5.00003 18.0981 5.07872 18.2562 5.22114C18.4143 5.36357 18.5153 5.55982 18.54 5.77268L18.5461 5.87506V7.24453L18.6463 7.33291L18.8855 7.53505C18.9293 7.5718 18.9748 7.60856 19.022 7.64531C19.4823 8.00846 20.0386 8.37336 20.5464 8.54487C20.6541 8.58118 20.7536 8.63862 20.8393 8.7139C20.9251 8.78918 20.9953 8.88084 21.0461 8.98363C21.0969 9.08642 21.1272 9.19833 21.1352 9.31298C21.1433 9.42763 21.129 9.54277 21.0932 9.65182C21.0573 9.76088 21.0006 9.86171 20.9263 9.94857C20.852 10.0354 20.7616 10.1066 20.6601 10.158C20.5587 10.2095 20.4482 10.2402 20.335 10.2483C20.2219 10.2565 20.1082 10.242 20.0006 10.2057C19.5674 10.0515 19.1531 9.84773 18.7654 9.59844L18.5461 9.45493V13.7506H21.1372C21.3574 13.7509 21.5691 13.8363 21.7292 13.9894C21.8893 14.1425 21.9856 14.3517 21.9985 14.5744C22.0114 14.797 21.9399 15.0163 21.7986 15.1873C21.6573 15.3583 21.4569 15.4683 21.2383 15.4946L21.1372 15.5007H18.5461V18.1259C18.5458 18.3489 18.4615 18.5635 18.3104 18.7256C18.1593 18.8878 17.9527 18.9854 17.733 18.9985C17.5132 19.0116 17.2968 18.9391 17.128 18.796C16.9592 18.6528 16.8507 18.4498 16.8247 18.2283L16.8186 18.1259V15.5007H8.18138V18.1259C8.18114 18.3489 8.09684 18.5635 7.94572 18.7256C7.79459 18.8878 7.58805 18.9854 7.36828 18.9985C7.14851 19.0116 6.93211 18.9391 6.76329 18.796C6.59448 18.6528 6.48598 18.4498 6.45998 18.2283L6.45394 18.1259V15.5007H3.86277C3.64262 15.5005 3.43088 15.4151 3.2708 15.262C3.11072 15.1089 3.01439 14.8996 3.00149 14.6769C2.98858 14.4543 3.06009 14.2351 3.20138 14.064C3.34268 13.893 3.54311 13.7831 3.76171 13.7567L3.86277 13.7506H6.45394V9.45406C6.02553 9.7437 5.52284 10.029 4.99943 10.2057C4.89179 10.242 4.77814 10.2565 4.66498 10.2483C4.55181 10.2402 4.44135 10.2095 4.33989 10.158C4.13498 10.0542 3.9792 9.87207 3.90682 9.65182C3.83443 9.43158 3.85136 9.19122 3.9539 8.98363C4.05643 8.77603 4.23616 8.61821 4.45355 8.54487C4.96142 8.37336 5.51766 8.00846 5.97802 7.64531L6.11449 7.53505L6.35374 7.33291L6.45394 7.24453V5.87506C6.45418 5.65203 6.53848 5.4375 6.6896 5.27532C6.84073 5.11314 7.04727 5.01555 7.26704 5.00247C7.48681 4.9894 7.70321 5.06184 7.87203 5.205C8.04084 5.34815 8.14934 5.5512 8.17534 5.77268L8.18138 5.87506V7.38192C8.40865 7.71039 8.68119 8.00418 8.99069 8.25435C9.65835 8.79601 10.7665 9.3753 12.5 9.3753C14.2335 9.3753 15.3417 8.79601 16.0093 8.25523C16.3488 7.97958 16.5828 7.70744 16.7279 7.51055L16.8186 7.38192V5.87506C16.8186 5.64298 16.9096 5.42041 17.0716 5.2563C17.2336 5.09219 17.4533 5 17.6823 5ZM16.8186 9.82771C16.373 10.1484 15.8896 10.4115 15.3797 10.6109L15.0912 10.7168V13.7506H16.8186V9.82771ZM13.3637 11.0843C12.8823 11.131 12.3979 11.1386 11.9153 11.107L11.6363 11.0843V13.7506H13.3637V11.0843ZM8.18138 9.82771V13.7506H9.90883V10.7168L9.62035 10.6118C9.18802 10.4427 8.77458 10.2277 8.38695 9.97034L8.18138 9.82771Z" fill="#892C7E"/>
</svg>
