<svg width="29" height="29" viewBox="0 0 29 29" fill="none" xmlns="http://www.w3.org/2000/svg">
<path fill-rule="evenodd" clip-rule="evenodd" d="M11.5048 11.8614H8.215C7.73229 11.8574 7.26776 12.0454 6.92361 12.3839C6.57945 12.7223 6.38386 13.1837 6.37988 13.6664V20.4976C6.38881 21.5024 7.21026 22.3099 8.215 22.3014H11.5048C11.9874 22.3054 12.452 22.1175 12.7962 21.779C13.1404 21.4406 13.3359 20.9792 13.3399 20.4964V13.6664C13.3359 13.1837 13.1404 12.7223 12.7962 12.3839C12.452 12.0454 11.9874 11.8574 11.5048 11.8614Z" stroke="white" stroke-width="1.5" stroke-linecap="round" stroke-linejoin="round"/>
<path fill-rule="evenodd" clip-rule="evenodd" d="M11.5048 5.22043H8.215C7.23046 5.19312 6.40957 5.96784 6.37988 6.95231V8.12855C6.40957 9.11303 7.23046 9.88775 8.215 9.86043H11.5048C12.4893 9.88775 13.3102 9.11303 13.3399 8.12855V6.95231C13.3102 5.96784 12.4893 5.19312 11.5048 5.22043Z" stroke="white" stroke-width="1.5" stroke-linecap="round" stroke-linejoin="round"/>
<path fill-rule="evenodd" clip-rule="evenodd" d="M18.175 15.6608H21.4636C21.9465 15.6651 22.4113 15.4773 22.7557 15.1388C23.1001 14.8002 23.2959 14.3388 23.2998 13.8559V7.02573C23.2959 6.54303 23.1003 6.08167 22.7561 5.74317C22.412 5.40467 21.9474 5.21675 21.4647 5.22077H18.175C17.6923 5.21675 17.2277 5.40467 16.8835 5.74317C16.5394 6.08167 16.3438 6.54303 16.3398 7.02573V13.8559C16.3438 14.3385 16.5394 14.7999 16.8835 15.1383C17.2277 15.4768 17.6923 15.6648 18.175 15.6608Z" stroke="white" stroke-width="1.5" stroke-linecap="round" stroke-linejoin="round"/>
<path fill-rule="evenodd" clip-rule="evenodd" d="M18.175 22.3018H21.4636C22.4485 22.3298 23.2701 21.5549 23.2998 20.57V19.3937C23.2701 18.4092 22.4492 17.6346 21.4647 17.6618H18.175C17.1905 17.6346 16.3695 18.4092 16.3398 19.3937V20.5688C16.3688 21.5537 17.19 22.3291 18.175 22.3018Z" stroke="white" stroke-width="1.5" stroke-linecap="round" stroke-linejoin="round"/>
</svg>
