<svg width="17" height="17" viewBox="0 0 17 17" fill="none" xmlns="http://www.w3.org/2000/svg">
<path fill-rule="evenodd" clip-rule="evenodd" d="M7.67617 0.475198C8.05469 0.246109 8.48869 0.125 8.93114 0.125C9.37358 0.125 9.80759 0.246109 10.1861 0.475198L11.0773 1.02032C12.3277 1.78464 13.7517 1.95482 15.1824 2.12632C15.6448 2.18189 16.1077 2.23701 16.5657 2.3127C16.5657 2.3127 16.5758 3.11507 16.5653 3.47907L16.4739 6.60764C16.3951 9.29082 15.202 11.8349 13.1554 13.6838C12.1899 14.5557 11.191 15.3436 10.0435 15.9981C9.70524 16.1893 9.32607 16.2965 8.93782 16.3107C8.54956 16.325 8.16356 16.2458 7.81223 16.0799C6.48704 15.4499 5.31367 14.6511 4.24223 13.6838C2.19561 11.8349 1.00254 9.29082 0.92423 6.60764L0.83323 3.48914C0.822293 3.11989 0.83323 2.3127 0.83323 2.3127C1.20511 2.26895 1.58398 2.23264 1.96592 2.19632C3.65161 2.0362 5.39329 1.87082 6.82217 0.997573L7.67617 0.475198ZM7.82011 7.1252V4.0627H9.57011V7.1252H12.6326V8.8752H9.57011V11.9377H7.82011V8.8752H4.75761V7.1252H7.82011Z" fill="black"/>
</svg>
