<svg width="19" height="19" viewBox="0 0 19 19" fill="none" xmlns="http://www.w3.org/2000/svg">
<path d="M11.2734 16.6252V10.9584C11.2734 10.7705 11.1987 10.5903 11.0659 10.4575C10.9331 10.3246 10.7529 10.25 10.565 10.25H7.73161C7.54374 10.25 7.36357 10.3246 7.23073 10.4575C7.09788 10.5903 7.02325 10.7705 7.02325 10.9584V16.6252" stroke="#0594B4" stroke-width="2" stroke-linecap="round" stroke-linejoin="round"/>
<path d="M2.77313 8.83442C2.77308 8.62834 2.81799 8.42473 2.90474 8.23779C2.99148 8.05085 3.11796 7.88509 3.27535 7.75206L8.23382 3.50265C8.48953 3.28654 8.81351 3.16797 9.14831 3.16797C9.48311 3.16797 9.80709 3.28654 10.0628 3.50265L15.0213 7.75206C15.1787 7.88509 15.3051 8.05085 15.3919 8.23779C15.4786 8.42473 15.5235 8.62834 15.5235 8.83442V15.2096C15.5235 15.5853 15.3742 15.9457 15.1085 16.2114C14.8429 16.477 14.4825 16.6263 14.1068 16.6263H4.18984C3.8141 16.6263 3.45376 16.477 3.18808 16.2114C2.92239 15.9457 2.77313 15.5853 2.77313 15.2096V8.83442Z" stroke="#0594B4" stroke-width="2" stroke-linecap="round" stroke-linejoin="round"/>
</svg>
