<svg width="18" height="18" viewBox="0 0 18 18" fill="none" xmlns="http://www.w3.org/2000/svg">
<g clip-path="url(#clip0_255_5835)">
<path d="M7.75062 1.44531H5.54298C4.74316 1.44531 4.02892 1.95 3.7633 2.7026L0.286561 12.5189C0.227534 12.6901 0.195068 12.8731 0.195068 13.0561C0.195068 13.9444 0.918159 14.6675 1.80653 14.6675H7.75062V12.7786C7.75062 12.2562 8.17267 11.8342 8.69507 11.8342C9.21746 11.8342 9.63951 12.2562 9.63951 12.7786V14.6675H15.5836C16.4749 14.6675 17.1951 13.9444 17.1951 13.0561C17.1951 12.8731 17.1626 12.6901 17.1036 12.5189L13.6268 2.7026C13.3583 1.95 12.647 1.44531 11.8472 1.44531H9.63951V3.3342C9.63951 3.8566 9.21746 4.27865 8.69507 4.27865C8.17267 4.27865 7.75062 3.8566 7.75062 3.3342V1.44531ZM9.63951 7.11198V9.00087C9.63951 9.52326 9.21746 9.94531 8.69507 9.94531C8.17267 9.94531 7.75062 9.52326 7.75062 9.00087V7.11198C7.75062 6.58958 8.17267 6.16753 8.69507 6.16753C9.21746 6.16753 9.63951 6.58958 9.63951 7.11198Z" fill="black"/>
</g>
<defs>
<clipPath id="clip0_255_5835">
<rect width="17" height="17" fill="white" transform="translate(0.195068 0.5)"/>
</clipPath>
</defs>
</svg>
