<svg width="24" height="24" viewBox="0 0 24 24" fill="none" xmlns="http://www.w3.org/2000/svg">
<path fill-rule="evenodd" clip-rule="evenodd" d="M13.5864 4.04861L20.6968 6.71499C20.8915 6.78823 21.0544 6.92747 21.157 7.10847C21.2597 7.28946 21.2956 7.50072 21.2585 7.70545C21.2213 7.91018 21.1136 8.0954 20.9539 8.22884C20.7943 8.36228 20.5929 8.43548 20.3848 8.43569V18.2124C20.3848 18.6839 20.1975 19.136 19.8642 19.4694C19.5308 19.8027 19.0787 19.99 18.6072 19.99H10.6081V15.546C10.6081 15.3103 10.5144 15.0842 10.3478 14.9176C10.1811 14.7509 9.95501 14.6572 9.71929 14.6572C9.48357 14.6572 9.2575 14.7509 9.09082 14.9176C8.92414 15.0842 8.8305 15.3103 8.8305 15.546V19.99H6.16412C5.69267 19.99 5.24054 19.8027 4.90718 19.4694C4.57381 19.136 4.38653 18.6839 4.38653 18.2124V12.8797C4.17112 12.8798 3.96298 12.8017 3.80081 12.6599C3.63865 12.5181 3.5335 12.3223 3.50493 12.1088C3.47635 11.8953 3.52629 11.6786 3.64546 11.4992C3.76462 11.3197 3.94491 11.1897 4.15278 11.1332L13.2745 8.64545V5.82975L12.9625 5.71243C12.7478 5.62537 12.5756 5.45795 12.4826 5.24582C12.3895 5.03369 12.383 4.79361 12.4643 4.57672C12.5457 4.35982 12.7085 4.18325 12.918 4.08461C13.1276 3.98597 13.3675 3.97305 13.5864 4.04861ZM17.274 13.7684H16.3852C16.1495 13.7684 15.9234 13.8621 15.7568 14.0288C15.5901 14.1955 15.4964 14.4215 15.4964 14.6572C15.4964 14.893 15.5901 15.119 15.7568 15.2857C15.9234 15.4524 16.1495 15.546 16.3852 15.546H17.274C17.5098 15.546 17.7358 15.4524 17.9025 15.2857C18.0692 15.119 18.1628 14.893 18.1628 14.6572C18.1628 14.4215 18.0692 14.1955 17.9025 14.0288C17.7358 13.8621 17.5098 13.7684 17.274 13.7684ZM17.274 10.2133H16.3852C16.1587 10.2135 15.9408 10.3003 15.7761 10.4558C15.6114 10.6113 15.5122 10.8238 15.499 11.05C15.4857 11.2761 15.5593 11.4988 15.7047 11.6725C15.8501 11.8462 16.0563 11.9579 16.2812 11.9846L16.3852 11.9909H17.274C17.5006 11.9906 17.7185 11.9039 17.8832 11.7484C18.0479 11.5928 18.147 11.3803 18.1603 11.1542C18.1736 10.928 18.1 10.7053 17.9546 10.5316C17.8092 10.3579 17.603 10.2463 17.378 10.2195L17.274 10.2133Z" fill="#7F4F24"/>
</svg>
