<svg width="24" height="24" viewBox="0 0 24 24" fill="none" xmlns="http://www.w3.org/2000/svg">
<path d="M19.4672 13.1291C19.7709 13.0726 20 12.8074 20 12.4886C20 12.3971 19.9828 12.3114 19.9656 12.2314C19.9454 12.2013 19.9267 12.1702 19.9095 12.1383L19.8912 12.1057C19.7518 11.8829 19.6105 11.6613 19.4672 11.4411V11.4286H19.4586C19.1393 10.9395 18.8079 10.4584 18.4647 9.98572C16.9868 7.93429 15.3255 6.16286 13.5038 4.54572C12.6846 3.82001 11.4529 3.82001 10.6223 4.53429C8.73183 6.15715 7.08772 7.91144 5.56964 9.98572C5.07125 10.66 4.59578 11.3571 4.14894 12.0771L4.12947 12.104C4.10541 12.1371 4.07963 12.1726 4.05729 12.2086C4.05729 12.22 4.05156 12.2257 4.04583 12.2314C4.01719 12.3114 4 12.3971 4 12.4886C4 12.8257 4.24576 13.0971 4.57286 13.1354V20H19.4672V13.1291ZM17.8306 12.5714C18.0368 12.6034 18.1869 12.6703 18.3215 12.7469V18.8571H14.8781V16.6971C14.8781 15.6171 13.9008 14.8571 12.8513 14.8571H11.182C10.1428 14.8571 9.15575 15.608 9.15575 16.6971V18.8571H5.71858V12.76C5.85836 12.6777 6.01303 12.6051 6.22843 12.5714H6.77608C7.06251 12.6166 7.24067 12.7309 7.41941 12.8451C7.6497 12.9926 7.88056 13.14 8.34228 13.14C8.8 13.14 9.02914 12.9931 9.25886 12.8463C9.43817 12.732 9.61747 12.6166 9.90619 12.5714H10.4538C10.7403 12.6166 10.919 12.7309 11.0972 12.8451C11.3275 12.9926 11.5583 13.14 12.0201 13.14C12.4818 13.14 12.7115 12.9926 12.9424 12.8457C13.1222 12.7314 13.3015 12.6166 13.5897 12.5714H14.1396C14.4278 12.6166 14.6077 12.7314 14.787 12.8457C15.0178 12.9931 15.2481 13.14 15.7093 13.14C16.1704 13.14 16.4007 12.9926 16.6316 12.8457C16.8109 12.7314 16.9908 12.6166 17.2789 12.5714H17.8306Z" fill="#1E6091"/>
</svg>
