<svg width="19" height="18" viewBox="0 0 19 18" fill="none" xmlns="http://www.w3.org/2000/svg">
<mask id="mask0_255_5953" style="mask-type:luminance" maskUnits="userSpaceOnUse" x="0" y="0" width="19" height="18">
<path d="M4.73325 7.38619C4.42331 4.4404 6.733 1.875 9.69502 1.875C12.6566 1.875 14.9663 4.4404 14.6564 7.38619L14.0674 12.9801C13.9533 14.0602 13.4434 15.0599 12.636 15.7864C11.8287 16.513 10.781 16.915 9.69482 16.915C8.60868 16.915 7.56098 16.513 6.75362 15.7864C5.94626 15.0599 5.43638 14.0602 5.32225 12.9801L4.73325 7.38619Z" fill="white" stroke="white" stroke-width="2"/>
<path d="M5.73682 11.7707C7.11907 10.5338 10.2604 8.93261 13.6535 11.7707" stroke="black" stroke-width="2" stroke-linecap="round" stroke-linejoin="round"/>
<path d="M7.71598 7.41536C8.15321 7.41536 8.50765 7.06092 8.50765 6.6237C8.50765 6.18647 8.15321 5.83203 7.71598 5.83203C7.27876 5.83203 6.92432 6.18647 6.92432 6.6237C6.92432 7.06092 7.27876 7.41536 7.71598 7.41536Z" fill="black"/>
<path d="M8.50749 13.7493C8.94471 13.7493 9.29915 13.3949 9.29915 12.9577C9.29915 12.5205 8.94471 12.166 8.50749 12.166C8.07026 12.166 7.71582 12.5205 7.71582 12.9577C7.71582 13.3949 8.07026 13.7493 8.50749 13.7493Z" fill="black"/>
<path d="M11.6742 7.41536C12.1115 7.41536 12.4659 7.06092 12.4659 6.6237C12.4659 6.18647 12.1115 5.83203 11.6742 5.83203C11.237 5.83203 10.8826 6.18647 10.8826 6.6237C10.8826 7.06092 11.237 7.41536 11.6742 7.41536Z" fill="black"/>
<path d="M10.8825 13.7493C11.3197 13.7493 11.6742 13.3949 11.6742 12.9577C11.6742 12.5205 11.3197 12.166 10.8825 12.166C10.4453 12.166 10.0908 12.5205 10.0908 12.9577C10.0908 13.3949 10.4453 13.7493 10.8825 13.7493Z" fill="black"/>
<path d="M13.2575 2.63084C14.1153 1.83917 16.1835 0.411003 17.2159 1.44334C18.2482 2.47567 17.2159 3.4225 16.4242 3.62042C15.4346 3.86782 14.7617 4.53084 14.445 5.00584M6.17054 2.63084C5.31316 1.83917 3.24454 0.411003 2.2122 1.44334C1.17987 2.47567 2.2122 3.4225 3.00387 3.62042C3.99345 3.86782 4.66637 4.53084 4.98304 5.00584" stroke="white" stroke-width="2" stroke-linecap="round" stroke-linejoin="round"/>
<path d="M4.94507 9.39453L5.3409 13.1549M14.4451 9.39453L14.0492 13.1549" stroke="white" stroke-width="2"/>
</mask>
<g mask="url(#mask0_255_5953)">
<path d="M0.195068 -0.5H19.1951V18.5H0.195068V-0.5Z" fill="black"/>
</g>
</svg>
