<svg width="20" height="19" viewBox="0 0 20 19" fill="none" xmlns="http://www.w3.org/2000/svg">
<path d="M16.7211 3.8125V7.0625C16.7211 7.29271 16.6431 7.48581 16.4871 7.64181C16.3311 7.79781 16.1382 7.87554 15.9086 7.875C15.6789 7.87446 15.4861 7.79646 15.3301 7.641C15.1741 7.48554 15.0961 7.29271 15.0961 7.0625V5.78281L11.8664 8.99219C12.1237 9.37135 12.32 9.77435 12.4554 10.2012C12.5909 10.628 12.6586 11.0714 12.6586 11.5312C12.6586 12.7771 12.2252 13.8333 11.3586 14.7C10.4919 15.5667 9.43565 16 8.18982 16C6.94399 16 5.88774 15.5667 5.02107 14.7C4.1544 13.8333 3.72107 12.7771 3.72107 11.5312C3.72107 10.2854 4.1544 9.22917 5.02107 8.3625C5.88774 7.49583 6.94399 7.0625 8.18982 7.0625C8.63669 7.0625 9.0768 7.12669 9.51013 7.25506C9.94346 7.38344 10.3429 7.58331 10.7086 7.85469L13.9383 4.625H12.6586C12.4284 4.625 12.2355 4.547 12.0801 4.391C11.9246 4.235 11.8466 4.04217 11.8461 3.8125C11.8455 3.58283 11.9235 3.39 12.0801 3.234C12.2366 3.078 12.4294 3 12.6586 3H15.9086C16.1388 3 16.3319 3.078 16.4879 3.234C16.6439 3.39 16.7216 3.58283 16.7211 3.8125ZM8.18982 8.6875C7.4044 8.6875 6.73409 8.9651 6.17888 9.52031C5.62367 10.0755 5.34607 10.7458 5.34607 11.5312C5.34607 12.3167 5.62367 12.987 6.17888 13.5422C6.73409 14.0974 7.4044 14.375 8.18982 14.375C8.97523 14.375 9.64555 14.0974 10.2008 13.5422C10.756 12.987 11.0336 12.3167 11.0336 11.5312C11.0336 10.7458 10.756 10.0755 10.2008 9.52031C9.64555 8.9651 8.97523 8.6875 8.18982 8.6875Z" fill="#7539FF"/>
</svg>
