<svg width="19" height="19" viewBox="0 0 19 19" fill="none" xmlns="http://www.w3.org/2000/svg">
<g clip-path="url(#clip0_255_5636)">
<path d="M9.82111 17.6471H8.63929C8.30444 17.6471 8.02396 17.5341 7.79784 17.3082C7.57172 17.0824 7.45826 16.8031 7.45747 16.4706C7.45669 16.138 7.57014 15.8588 7.79784 15.6329C8.02554 15.4071 8.30602 15.2941 8.63929 15.2941H9.82111V12.8235C8.26505 12.549 6.98948 11.8086 5.99438 10.6024C4.99929 9.39608 4.50214 7.99921 4.50293 6.41176C4.50293 4.62745 5.13835 3.11294 6.4092 1.86824C7.68005 0.62353 9.21129 0.000785054 11.0029 7.39919e-07C12.7946 -0.000783574 14.3262 0.621961 15.5978 1.86824C16.8695 3.11451 17.5045 4.62902 17.5029 6.41176C17.5029 8 17.0054 9.39725 16.0103 10.6035C15.0152 11.8098 13.74 12.5498 12.1847 12.8235V15.2941H13.3666C13.7014 15.2941 13.9823 15.4071 14.2092 15.6329C14.4361 15.8588 14.5492 16.138 14.5484 16.4706C14.5476 16.8031 14.4341 17.0827 14.208 17.3094C13.9819 17.5361 13.7014 17.6486 13.3666 17.6471H12.1847V18.8235C12.1847 19.1569 12.0713 19.4365 11.8444 19.6623C11.6175 19.8882 11.337 20.0008 11.0029 20C10.6689 19.9992 10.3884 19.8863 10.1615 19.6612C9.93457 19.4361 9.82111 19.1569 9.82111 18.8235V17.6471ZM11.0029 10.5882C12.1454 10.5882 13.1204 10.1863 13.9279 9.38235C14.7355 8.57843 15.1393 7.60784 15.1393 6.47059C15.1393 5.33333 14.7355 4.36275 13.9279 3.55882C13.1204 2.7549 12.1454 2.35294 11.0029 2.35294C9.86051 2.35294 8.8855 2.7549 8.07793 3.55882C7.27035 4.36275 6.86657 5.33333 6.86657 6.47059C6.86657 7.60784 7.27035 8.57843 8.07793 9.38235C8.8855 10.1863 9.86051 10.5882 11.0029 10.5882Z" fill="#219452"/>
</g>
<defs>
<clipPath id="clip0_255_5636">
<rect width="19" height="19" fill="white"/>
</clipPath>
</defs>
</svg>
