<svg width="18" height="22" viewBox="0 0 18 22" fill="none" xmlns="http://www.w3.org/2000/svg">
<path fill-rule="evenodd" clip-rule="evenodd" d="M17.2857 0.785714C17.2857 0.352 16.9337 0 16.5 0H0.785714C0.352 0 0 0.352 0 0.785714V21.2143C0 21.648 0.352 22 0.785714 22H16.5C16.9337 22 17.2857 21.648 17.2857 21.2143V0.785714ZM15.7143 1.57143V20.4286H1.57143V1.57143H15.7143ZM8.64286 9.42857C6.04136 9.42857 3.92857 11.5414 3.92857 14.1429C3.92857 16.7444 6.04136 18.8571 8.64286 18.8571C11.2444 18.8571 13.3571 16.7444 13.3571 14.1429C13.3571 11.5414 11.2444 9.42857 8.64286 9.42857ZM7.85714 11.099C6.50257 11.4486 5.5 12.6799 5.5 14.1429C5.5 15.8777 6.908 17.2857 8.64286 17.2857C10.1059 17.2857 11.3371 16.2831 11.6867 14.9286H8.64286C8.20914 14.9286 7.85714 14.5766 7.85714 14.1429V11.099ZM6.28571 7.85714H11C11.4337 7.85714 11.7857 7.50514 11.7857 7.07143C11.7857 6.63771 11.4337 6.28571 11 6.28571H6.28571C5.852 6.28571 5.5 6.63771 5.5 7.07143C5.5 7.50514 5.852 7.85714 6.28571 7.85714ZM4.71429 4.71429H12.5714C13.0051 4.71429 13.3571 4.36229 13.3571 3.92857C13.3571 3.49486 13.0051 3.14286 12.5714 3.14286H4.71429C4.28057 3.14286 3.92857 3.49486 3.92857 3.92857C3.92857 4.36229 4.28057 4.71429 4.71429 4.71429Z" fill="#F1F1F1"/>
</svg>
