<svg width="24" height="24" viewBox="0 0 24 24" fill="none" xmlns="http://www.w3.org/2000/svg">
<path fill-rule="evenodd" clip-rule="evenodd" d="M13.7049 3.89067C13.4226 3.60829 13.0874 3.3843 12.7185 3.23148C12.3496 3.07866 11.9543 3 11.555 3C11.1557 3 10.7604 3.07866 10.3915 3.23148C10.0226 3.3843 9.68744 3.60829 9.40514 3.89067L3.89067 9.40514C3.60829 9.68744 3.3843 10.0226 3.23148 10.3915C3.07866 10.7604 3 11.1557 3 11.555C3 11.9543 3.07866 12.3496 3.23148 12.7185C3.3843 13.0874 3.60829 13.4226 3.89067 13.7049L9.40514 19.2193C9.68744 19.5017 10.0226 19.7257 10.3915 19.8785C10.7604 20.0313 11.1557 20.11 11.555 20.11C11.9543 20.11 12.3496 20.0313 12.7185 19.8785C13.0874 19.7257 13.4226 19.5017 13.7049 19.2193L19.2193 13.7049C19.5017 13.4226 19.7257 13.0874 19.8785 12.7185C20.0313 12.3496 20.11 11.9543 20.11 11.555C20.11 11.1557 20.0313 10.7604 19.8785 10.3915C19.7257 10.0226 19.5017 9.68744 19.2193 9.40514L13.7049 3.89067ZM10.947 7.74168V10.7816H7.90705V11.9976H10.947V15.0376H12.163V11.9976H15.2029V10.7816H12.163V7.74168H10.947Z" fill="#892C7E"/>
</svg>
