<svg width="18" height="18" viewBox="0 0 18 18" fill="none" xmlns="http://www.w3.org/2000/svg">
<path fill-rule="evenodd" clip-rule="evenodd" d="M10.7049 0.890666C10.4226 0.608295 10.0874 0.384302 9.71852 0.231479C9.34965 0.0786573 8.95428 0 8.555 0C8.15572 0 7.76035 0.0786573 7.39147 0.231479C7.0226 0.384302 6.68744 0.608295 6.40514 0.890666L0.890666 6.40514C0.608295 6.68744 0.384302 7.0226 0.23148 7.39147C0.0786574 7.76035 0 8.15572 0 8.555C0 8.95428 0.0786574 9.34965 0.23148 9.71853C0.384302 10.0874 0.608295 10.4226 0.890666 10.7049L6.40514 16.2193C6.68744 16.5017 7.0226 16.7257 7.39147 16.8785C7.76035 17.0313 8.15572 17.11 8.555 17.11C8.95428 17.11 9.34965 17.0313 9.71852 16.8785C10.0874 16.7257 10.4226 16.5017 10.7049 16.2193L16.2193 10.7049C16.5017 10.4226 16.7257 10.0874 16.8785 9.71853C17.0313 9.34965 17.11 8.95428 17.11 8.555C17.11 8.15572 17.0313 7.76035 16.8785 7.39147C16.7257 7.0226 16.5017 6.68744 16.2193 6.40514L10.7049 0.890666ZM7.94701 4.74168V7.78164H4.90705V8.99762H7.94701V12.0376H9.16299V8.99762H12.2029V7.78164H9.16299V4.74168H7.94701Z" fill="#892C7E"/>
</svg>
