<svg width="24" height="24" viewBox="0 0 24 24" fill="none" xmlns="http://www.w3.org/2000/svg">
<path d="M20.3793 18.75H19.7586V12.5C19.7586 12.1685 19.6278 11.8505 19.395 11.6161C19.1622 11.3817 18.8465 11.25 18.5172 11.25H14.1724V6.25C14.1724 5.91848 14.0416 5.60054 13.8088 5.36612C13.576 5.1317 13.2603 5 12.931 5H5.48276C5.15352 5 4.83777 5.1317 4.60497 5.36612C4.37217 5.60054 4.24138 5.91848 4.24138 6.25V18.75H3.62069C3.45607 18.75 3.2982 18.8158 3.1818 18.9331C3.06539 19.0503 3 19.2092 3 19.375C3 19.5408 3.06539 19.6997 3.1818 19.8169C3.2982 19.9342 3.45607 20 3.62069 20H20.3793C20.5439 20 20.7018 19.9342 20.8182 19.8169C20.9346 19.6997 21 19.5408 21 19.375C21 19.2092 20.9346 19.0503 20.8182 18.9331C20.7018 18.8158 20.5439 18.75 20.3793 18.75ZM11.069 18.75H7.34483V15H11.069V18.75ZM11.069 10.625H9.82759V11.875C9.82759 12.0408 9.76219 12.1997 9.64579 12.3169C9.52939 12.4342 9.37151 12.5 9.2069 12.5C9.04228 12.5 8.8844 12.4342 8.768 12.3169C8.6516 12.1997 8.58621 12.0408 8.58621 11.875V10.625H7.34483C7.18021 10.625 7.02234 10.5592 6.90593 10.4419C6.78953 10.3247 6.72414 10.1658 6.72414 10C6.72414 9.83424 6.78953 9.67527 6.90593 9.55806C7.02234 9.44085 7.18021 9.375 7.34483 9.375H8.58621V8.125C8.58621 7.95924 8.6516 7.80027 8.768 7.68306C8.8844 7.56585 9.04228 7.5 9.2069 7.5C9.37151 7.5 9.52939 7.56585 9.64579 7.68306C9.76219 7.80027 9.82759 7.95924 9.82759 8.125V9.375H11.069C11.2336 9.375 11.3915 9.44085 11.5079 9.55806C11.6243 9.67527 11.6897 9.83424 11.6897 10C11.6897 10.1658 11.6243 10.3247 11.5079 10.4419C11.3915 10.5592 11.2336 10.625 11.069 10.625ZM18.5172 18.75H14.1724V12.5H18.5172V18.75Z" fill="#1E6091"/>
</svg>
