<svg width="24" height="24" viewBox="0 0 24 24" fill="none" xmlns="http://www.w3.org/2000/svg">
<path fill-rule="evenodd" clip-rule="evenodd" d="M12.8313 5.09897C12.7316 5.03435 12.6156 5 12.4971 5C12.3786 5 12.2626 5.03435 12.1628 5.09897L3.49707 10.7244L4.16557 11.7744L5.06928 11.1894V19.375C5.06928 19.5407 5.1345 19.6997 5.25058 19.8169C5.36666 19.9341 5.5241 20 5.68827 20H19.3059C19.47 20 19.6275 19.9341 19.7436 19.8169C19.8596 19.6997 19.9249 19.5407 19.9249 19.375V11.1894L20.8286 11.7757L21.4971 10.7231L12.8313 5.09897ZM10.6401 13.7496C10.476 13.7496 10.3185 13.8154 10.2024 13.9326C10.0864 14.0499 10.0211 14.2088 10.0211 14.3746V18.7499H11.2591V14.9997H13.735V18.7499H14.973V14.3746C14.973 14.2088 14.9078 14.0499 14.7917 13.9326C14.6756 13.8154 14.5182 13.7496 14.354 13.7496H10.6401Z" fill="#892C7E"/>
</svg>
