<svg width="24" height="24" viewBox="0 0 24 24" fill="none" xmlns="http://www.w3.org/2000/svg">
<path d="M4 6.39868L6.35538 10.1303C6.69002 10.8245 7.73071 10.665 8.27587 10.1303L10.0035 8.45761L12.6615 12.5626C11.0604 14.1441 10.1386 15.022 8.53843 16.5993C7.67676 17.4528 8.33507 18.99 9.49844 18.99H17.5943V17.5903L12.8811 16.1897C13.9626 15.1213 15.046 14.0525 16.1316 12.9832C16.7088 12.4156 16.5846 11.5863 16.1316 11.0039L11.7679 5.40908C11.2982 4.80424 10.3377 4.92645 9.84835 5.40908C9.00352 6.23982 8.15999 7.07189 7.31778 7.90529L4.67835 5.69742L4 6.39868Z" fill="#7F4F24"/>
<circle cx="9" cy="2" r="2" fill="#7F4F24"/>
</svg>
