<svg width="18" height="13" viewBox="0 0 18 13" fill="none" xmlns="http://www.w3.org/2000/svg">
<path d="M12.7049 11.2667V13H0.804932V11.2667C0.804932 11.2667 0.804932 7.80001 6.75493 7.80001C12.7049 7.80001 12.7049 11.2667 12.7049 11.2667ZM9.72993 3.03336C9.72993 2.43342 9.55545 1.84696 9.22855 1.34813C8.90166 0.849305 8.43703 0.460515 7.89341 0.23093C7.3498 0.00134498 6.75163 -0.058725 6.17454 0.0583165C5.59744 0.175358 5.06735 0.464254 4.65129 0.888473C4.23523 1.31269 3.95189 1.85318 3.8371 2.44159C3.7223 3.02999 3.78122 3.63989 4.00639 4.19416C4.23156 4.74843 4.61287 5.22217 5.10211 5.55548C5.59135 5.88878 6.16653 6.06668 6.75493 6.06668C7.54395 6.06668 8.30065 5.7471 8.85857 5.17824C9.41649 4.60938 9.72993 3.83785 9.72993 3.03336ZM12.6539 7.80001C13.1765 8.21233 13.604 8.73639 13.9066 9.33532C14.2091 9.93425 14.3792 10.5935 14.4049 11.2667V13H17.8049V11.2667C17.8049 11.2667 17.8049 8.12068 12.6539 7.80001ZM11.8549 3.18902e-05C11.2699 -0.00274242 10.6979 0.175558 10.2144 0.511364C10.7308 1.24693 11.0084 2.12881 11.0084 3.03336C11.0084 3.93791 10.7308 4.81978 10.2144 5.55535C10.6979 5.89116 11.2699 6.06946 11.8549 6.06668C12.644 6.06668 13.4007 5.7471 13.9586 5.17824C14.5165 4.60938 14.8299 3.83785 14.8299 3.03336C14.8299 2.22887 14.5165 1.45733 13.9586 0.888473C13.4007 0.319614 12.644 3.18902e-05 11.8549 3.18902e-05Z" fill="#0B0B0B"/>
</svg>
