<svg width="17" height="16" viewBox="0 0 17 16" fill="none" xmlns="http://www.w3.org/2000/svg">
<path d="M4.14195 1.05306L3.89004 3.02152H12.5174L12.2655 1.05306C12.2655 0.457695 11.7851 0 11.1897 0H5.19355C4.59818 0 4.14049 0.457695 4.14049 1.05306H4.14195ZM1.05306 4.09655H15.3558C15.9512 4.09655 16.4089 4.55424 16.4089 5.14961V11.4204C16.4089 12.0158 15.9512 12.4735 15.3558 12.4735H13.4108V15.38H2.99808V12.4735H1.05306C0.457694 12.4735 0 12.0158 0 11.4204V5.14961C0 4.55424 0.457694 4.09655 1.05306 4.09655ZM12.3578 14.3262V7.52962H4.05041V14.3262H12.3578ZM11.1223 9.49734H5.17231C5.03464 9.49734 4.9204 9.35967 4.9204 9.22273V8.90197C4.9204 8.7643 5.03464 8.65006 5.17231 8.65006H11.1223C11.26 8.65006 11.397 8.7643 11.397 8.90197V9.22273C11.397 9.3604 11.2593 9.49734 11.1223 9.49734ZM11.1223 11.397H5.17231C5.03464 11.397 4.9204 11.2593 4.9204 11.1223V10.8016C4.9204 10.6639 5.03464 10.5497 5.17231 10.5497H11.1223C11.26 10.5497 11.397 10.6639 11.397 10.8016V11.1223C11.397 11.26 11.2593 11.397 11.1223 11.397ZM11.1223 13.2958H5.17231C5.03464 13.2958 4.9204 13.1582 4.9204 13.0212V12.7005C4.9204 12.5628 5.03464 12.4486 5.17231 12.4486H11.1223C11.26 12.4486 11.397 12.5628 11.397 12.7005V13.0212C11.397 13.1589 11.2593 13.2958 11.1223 13.2958Z" fill="#245FAE"/>
</svg>
