<svg width="22" height="22" viewBox="0 0 22 22" fill="none" xmlns="http://www.w3.org/2000/svg">
<g clip-path="url(#clip0_192_4202)">
<path d="M3.26562 11H21.3125L19.9155 9.603C19.3249 5.80456 16.3649 2.79228 12.594 2.11991C12.5036 1.31587 11.8291 0.6875 11.0007 0.6875C10.1722 0.6875 9.49747 1.31553 9.40741 2.11956C5.63613 2.79159 2.67506 5.80422 2.0845 9.60266L0.6875 11H3.26562ZM17.6474 9.06641H16.4801C16.0662 6.45803 14.8538 4.31647 13.2557 3.26562C15.4337 4.33675 17.0789 6.47281 17.6474 9.06641ZM10.3555 5.52166V3.58806H11.6445V5.52166H13.5781V6.81072H11.6445V8.74431H10.3555V6.81072H8.42188V5.52166H10.3555ZM8.74431 3.26562C7.14725 4.31647 5.93381 6.45803 5.51994 9.06641H4.35256C4.92147 6.47281 6.567 4.33675 8.74431 3.26562Z" fill="#F1F1F1"/>
<path d="M18.7344 11.6875V12.2891C18.7344 16.5543 15.2649 20.0234 11 20.0234C6.73578 20.0234 3.26562 16.5543 3.26562 12.2891V11.6875H1.97656V12.2891C1.97656 17.2648 6.02422 21.3125 11 21.3125C15.9758 21.3125 20.0234 17.2648 20.0234 12.2891V11.6875H18.7344Z" fill="#F1F1F1"/>
</g>
<defs>
<clipPath id="clip0_192_4202">
<rect width="22" height="22" fill="white"/>
</clipPath>
</defs>
</svg>
