<svg width="24" height="24" viewBox="0 0 24 24" fill="none" xmlns="http://www.w3.org/2000/svg">
<path d="M13.2072 18.396L13.4712 17.7182L13.6817 18.396L13.8779 17.6053L13.7339 15.9785C13.4709 16.2476 13.1394 16.5835 12.7259 17.0044L13.2072 18.396ZM14.512 5.48807C14.3021 5.23749 14.0615 5.01432 13.7959 4.8238C13.2091 4.42117 12.5955 4.18281 11.9292 4.07344C11.2937 3.96949 10.6416 3.98047 10.02 4.07751C9.4855 4.16178 8.9627 4.30852 8.46238 4.51471C8.11269 4.65747 7.77668 4.83171 7.45851 5.03528C7.04151 5.32665 7.10499 5.26669 7.49071 5.09696C7.82884 4.9526 8.17936 4.83916 8.53796 4.75805C10.247 4.59428 11.8732 4.50118 13.0852 5.67888C13.2462 5.84135 13.3861 6.02356 13.5014 6.22115C13.6611 6.49431 13.7659 6.79313 13.8288 7.08843L15.3773 7.18468C15.2067 6.58304 14.8602 5.91124 14.512 5.48807ZM16.2083 6.3906C15.9192 5.94266 15.5815 5.52881 15.2031 5.20847C15.0396 5.07 14.8599 4.95187 14.6679 4.85667C14.7584 4.9475 14.8448 5.04138 14.9258 5.13865C15.0364 5.26968 15.1397 5.4067 15.2353 5.54908L15.2387 5.55382L15.2417 5.55857C15.5729 6.07168 15.8234 6.7062 15.946 7.22434L16.698 7.2684C16.5523 6.96641 16.389 6.6732 16.209 6.39027L16.2083 6.3906ZM17.2213 7.84794L19.5937 13.9281L19.1931 14.8896L16.9641 13.6037L16.6929 14.0735L18.9827 15.3953L18.836 15.5903L17.3121 15.4474L15.098 14.3809C14.9952 14.3531 14.8896 14.3369 14.7832 14.3324C14.5896 14.3324 14.4605 14.4022 14.3524 14.5568C14.2667 14.6791 11.6919 17.2857 9.34865 19.65H4.49707V11.1002L7.6439 11.2307L10.9182 10.1034L11.2615 9.73062C11.7185 9.95884 12.1501 10.2345 12.5494 10.5532C12.6617 10.6408 12.8004 10.6878 12.9428 10.6864C13.4103 10.633 13.6893 10.3773 14.0555 10.0821C13.9448 9.36208 13.8276 8.60067 13.7315 7.97741C13.5125 7.90438 13.2934 7.8314 13.0743 7.75847L13.2231 7.59647L17.2213 7.84794ZM15.9589 10.0516C15.8225 9.5532 15.2772 9.39316 14.9225 9.43678C14.8183 9.45142 14.7134 9.48514 14.6252 9.52761C14.6546 9.63233 14.6988 9.79433 14.7537 9.87839C14.9749 10.1906 15.3416 10.3494 15.6904 10.3024C15.8249 10.2796 15.9934 10.1778 15.9589 10.0516ZM18.0476 13.6261L18.6915 14.3039L19.0847 13.9311L18.4407 13.2533L18.0476 13.6261ZM20.0533 8.70269C20.0533 8.70269 18.6793 7.7605 18.1215 8.66202L18.5028 9.63911L20.0533 8.70269ZM13.9189 15.7881L14.3731 16.5432L14.3595 15.3353C14.248 15.4522 14.1043 15.6003 13.9206 15.7881H13.9189ZM12.8818 10.1282C13.0804 10.1916 13.4787 9.92319 13.4692 9.85669L13.2431 8.38817L12.2942 8.07264C11.696 7.97568 10.3209 7.90356 10.0143 8.38716C11.3562 9.73374 11.3539 8.95891 12.8818 10.1282ZM17.1888 15.9877C16.6698 15.7266 16.1436 15.4794 15.6203 15.2272C15.7949 16.2231 15.9895 17.2156 16.1541 18.2133L17.0102 19.4785L16.9221 18.3262L17.5114 18.7556V17.7839L17.8568 16.3622L18.0828 15.9877H17.1888Z" fill="#892C7E"/>
</svg>
