<svg xmlns="http://www.w3.org/2000/svg" xmlns:xlink="http://www.w3.org/1999/xlink" version="1.1" x="0px" y="0px" viewBox="0 0 128 128" style="enable-background:new 0 0 128 128;" xml:space="preserve">
<g id="_x34_">
	<path id="icon_10_" style="fill:#ffffff;" d="M36.097,119.813C19.356,109.769,8.169,92.975,5.404,73.734l5.86-0.842   c2.51,17.47,12.672,32.722,27.877,41.845L36.097,119.813z M127.54,73.735l-5.858-0.842c-2.478,17.222-12.44,32.353-27.334,41.511   l3.102,5.043C113.845,109.365,124.811,92.703,127.54,73.735z M69.226,5.92c9.259,0,18.115,2.097,26.322,6.235l2.663-5.286   C89.172,2.311,79.42,0,69.226,0C59.033,0,49.28,2.311,40.237,6.87l2.665,5.286C51.111,8.018,59.967,5.92,69.226,5.92z M127.8,64.2   v-6.836c0-3.703-12.532-9.114-22.786-9.114s-22.786,5.412-22.786,9.114V64.2H127.8z M105.015,16.349   c-5.891,0-11.393,4.775-11.393,10.666v8.29c0,5.891,5.502,10.666,11.393,10.666c5.891,0,11.393-4.775,11.393-10.666v-8.29   C116.408,21.124,110.905,16.349,105.015,16.349z M86.786,128v-6.836c0-3.703-12.532-9.114-22.786-9.114s-22.786,5.412-22.786,9.114   V128H86.786z M64,80.15c-5.891,0-11.393,4.775-11.393,10.666v8.29c0,5.891,5.502,10.666,11.393,10.666   c5.891,0,11.393-4.775,11.393-10.666v-8.29C75.393,84.925,69.891,80.15,64,80.15z M45.771,64.2v-6.836   c0-3.703-12.532-9.114-22.786-9.114S0.2,53.661,0.2,57.364V64.2H45.771z M22.985,16.349c-5.891,0-11.393,4.775-11.393,10.666v8.29   c0,5.891,5.502,10.666,11.393,10.666c5.891,0,11.393-4.775,11.393-10.666v-8.29C34.378,21.124,28.876,16.349,22.985,16.349z"/>
</g>
<g id="Layer_1">
</g>
</svg>