<svg width="24" height="24" viewBox="0 0 24 24" fill="none" xmlns="http://www.w3.org/2000/svg">
<path d="M11.9314 1.13281C15.7597 1.13281 18.8629 4.23601 18.8629 8.06424C18.8629 11.8925 15.7597 14.9957 11.9314 14.9957C8.1032 14.9957 5 11.8925 5 8.06424C5 4.23601 8.1032 1.13281 11.9314 1.13281ZM11.9314 2.5191C10.4608 2.5191 9.05034 3.10332 8.01042 4.14323C6.9705 5.18315 6.38629 6.59358 6.38629 8.06424C6.38629 9.5349 6.9705 10.9453 8.01042 11.9852C9.05034 13.0252 10.4608 13.6094 11.9314 13.6094C13.4021 13.6094 14.8125 13.0252 15.8524 11.9852C16.8924 10.9453 17.4766 9.5349 17.4766 8.06424C17.4766 6.59358 16.8924 5.18315 15.8524 4.14323C14.8125 3.10332 13.4021 2.5191 11.9314 2.5191Z" fill="#E76F51" stroke="#E76F51" stroke-width="0.5"/>
<path d="M7.20147 14.2278C7.50652 14.4771 7.82973 14.7014 8.17111 14.9008L6.49559 16.9485C6.8464 17.4421 7.00421 18.0471 6.93919 18.6492C6.87416 19.2513 6.59081 19.8087 6.1427 20.216C5.6946 20.6233 5.11278 20.8524 4.50725 20.8598C3.90173 20.8673 3.31445 20.6526 2.85644 20.2564C2.39844 19.8603 2.10145 19.31 2.02162 18.7097C1.94179 18.1095 2.08465 17.5007 2.4232 16.9986C2.76175 16.4965 3.27251 16.1358 3.85895 15.9848C4.44538 15.8337 5.06683 15.9028 5.60582 16.1788L7.20147 14.2278ZM16.6131 14.2278L18.2088 16.1782C18.7477 15.9021 19.3692 15.8331 19.9556 15.9842C20.5421 16.1352 21.0528 16.4959 21.3914 16.998C21.7299 17.5001 21.8728 18.1088 21.793 18.7091C21.7131 19.3094 21.4161 19.8597 20.9581 20.2558C20.5001 20.652 19.9129 20.8666 19.3073 20.8592C18.7018 20.8517 18.12 20.6227 17.6719 20.2154C17.2238 19.808 16.9404 19.2506 16.8754 18.6486C16.8104 18.0465 16.9682 17.4415 17.319 16.9479L15.6435 14.9008C15.9838 14.7025 16.3085 14.4774 16.6131 14.2278ZM4.47704 17.1454C4.1486 17.1454 3.83362 17.2758 3.60138 17.5081C3.36914 17.7403 3.23867 18.0553 3.23867 18.3837C3.23867 18.7122 3.36914 19.0272 3.60138 19.2594C3.83362 19.4917 4.1486 19.6221 4.47704 19.6221C4.80548 19.6221 5.12046 19.4917 5.3527 19.2594C5.58494 19.0272 5.71542 18.7122 5.71542 18.3837C5.71542 18.0553 5.58494 17.7403 5.3527 17.5081C5.12046 17.2758 4.80548 17.1454 4.47704 17.1454ZM19.3375 17.1454C19.0091 17.1454 18.6941 17.2758 18.4619 17.5081C18.2296 17.7403 18.0992 18.0553 18.0992 18.3837C18.0992 18.7122 18.2296 19.0272 18.4619 19.2594C18.6941 19.4917 19.0091 19.6221 19.3375 19.6221C19.666 19.6221 19.981 19.4917 20.2132 19.2594C20.4454 19.0272 20.5759 18.7122 20.5759 18.3837C20.5759 18.0553 20.4454 17.7403 20.2132 17.5081C19.981 17.2758 19.666 17.1454 19.3375 17.1454ZM12.5265 6V7.85756H14.384V9.09594H12.5265V10.9535H11.2881V9.09594H9.43054V7.85756H11.2881V6H12.5265Z" fill="#E76F51" stroke="#E76F51" stroke-width="0.5"/>
</svg>
