<svg width="22" height="22" viewBox="0 0 22 22" fill="none" xmlns="http://www.w3.org/2000/svg">
<path fill-rule="evenodd" clip-rule="evenodd" d="M16.4172 2.521C15.4861 2.521 14.7397 3.26736 14.7397 4.1985C14.7397 5.09493 15.4292 5.81739 16.302 5.874C16.3752 5.8675 16.4501 5.8675 16.5234 5.874C17.3946 5.81745 18.0871 5.09591 18.0947 4.19604C18.0934 3.27345 17.3458 2.521 16.4172 2.521ZM13.3647 4.1985C13.3647 2.50797 14.7267 1.146 16.4172 1.146C18.1095 1.146 19.4697 2.51887 19.4697 4.1985V4.20341H19.4697C19.4579 5.85242 18.1599 7.1913 16.5246 7.25055C16.4872 7.2519 16.4498 7.2502 16.4127 7.24546C16.3756 7.2502 16.3381 7.2519 16.3007 7.25055C14.6663 7.19133 13.3647 5.85219 13.3647 4.1985Z" fill="#F1F1F1"/>
<path fill-rule="evenodd" clip-rule="evenodd" d="M15.4093 8.1138C16.8029 7.86966 18.392 8.10242 19.5472 8.86897L19.5485 8.86979C20.3381 9.39619 20.824 10.159 20.824 11.0093C20.824 11.8597 20.3381 12.6225 19.5485 13.1489C18.4018 13.9163 16.8317 14.1482 15.4416 13.9148C15.0672 13.852 14.8146 13.4975 14.8774 13.123C14.9403 12.7485 15.2948 12.4959 15.6693 12.5588C16.7903 12.747 17.988 12.5392 18.7845 12.0056L18.7858 12.0048C19.2887 11.6695 19.449 11.2956 19.449 11.0093C19.449 10.7231 19.2888 10.3494 18.7864 10.0143C17.98 9.47947 16.7643 9.27236 15.6466 9.46817C15.2726 9.53369 14.9163 9.28362 14.8508 8.90962C14.7852 8.53562 15.0353 8.17932 15.4093 8.1138Z" fill="#F1F1F1"/>
<path fill-rule="evenodd" clip-rule="evenodd" d="M2.50244 4.1985C2.50244 2.51887 3.86268 1.146 5.55494 1.146C7.24547 1.146 8.60744 2.50797 8.60744 4.1985C8.60744 5.85219 7.30591 7.19133 5.6715 7.25055C5.63409 7.2519 5.59664 7.2502 5.55953 7.24546C5.52242 7.2502 5.48497 7.2519 5.44755 7.25055C3.81228 7.1913 2.51424 5.85242 2.50246 4.20341L2.50244 4.1985ZM3.87744 4.19605C3.88512 5.09591 4.57757 5.81745 5.44884 5.874C5.52204 5.8675 5.59702 5.8675 5.67022 5.874C6.54299 5.81739 7.23244 5.09493 7.23244 4.1985C7.23244 3.26736 6.48608 2.521 5.55494 2.521C4.62636 2.521 3.87876 3.27346 3.87744 4.19605Z" fill="#F1F1F1"/>
<path fill-rule="evenodd" clip-rule="evenodd" d="M3.18556 10.0143C3.992 9.47946 5.2076 9.27236 6.32536 9.46817C6.69936 9.53369 7.05566 9.28362 7.12118 8.90962C7.18669 8.53562 6.93662 8.17932 6.56262 8.1138C5.169 7.86966 3.57993 8.10242 2.4247 8.86897L2.4247 8.86897L2.42347 8.86979C1.63386 9.39619 1.14795 10.159 1.14795 11.0093C1.14795 11.8595 1.63361 12.6221 2.42285 13.1484C3.56956 13.9162 5.13995 14.1483 6.53032 13.9148C6.90477 13.852 7.15737 13.4975 7.0945 13.123C7.03164 12.7485 6.67712 12.4959 6.30266 12.5588C5.18161 12.747 3.98398 12.5392 3.18742 12.0056L3.18618 12.0048C2.68328 11.6695 2.52295 11.2956 2.52295 11.0093C2.52295 10.7231 2.68315 10.3494 3.18556 10.0143Z" fill="#F1F1F1"/>
<path fill-rule="evenodd" clip-rule="evenodd" d="M10.9172 9.36865C9.98611 9.36865 9.23975 10.115 9.23975 11.0462C9.23975 11.9426 9.9292 12.665 10.802 12.7217C10.8762 12.7151 10.9523 12.7152 11.0264 12.7219C11.8906 12.6724 12.587 11.9484 12.5947 11.0437C12.5934 10.1211 11.8458 9.36865 10.9172 9.36865ZM7.86475 11.0462C7.86475 9.35563 9.22671 7.99365 10.9172 7.99365C12.6095 7.99365 13.9697 9.36653 13.9697 11.0462V11.0511H13.9697C13.958 12.6956 12.6633 14.0507 11.0197 14.0984C10.9839 14.0994 10.9481 14.0976 10.9127 14.0931C10.8756 14.0979 10.8381 14.0996 10.8007 14.0982C9.16627 14.039 7.86475 12.6998 7.86475 11.0462Z" fill="#F1F1F1"/>
<path fill-rule="evenodd" clip-rule="evenodd" d="M11.0031 14.8823C12.0742 14.8823 13.1823 15.1491 14.0485 15.7265C14.8381 16.2529 15.324 17.0157 15.324 17.8661C15.324 18.7163 14.8383 19.479 14.0488 20.0054C13.179 20.5869 12.0713 20.8567 10.9997 20.8567C9.92809 20.8567 8.82039 20.587 7.95051 20.0054C7.16109 19.479 6.67529 18.7163 6.67529 17.8661C6.67529 17.0157 7.16121 16.2529 7.95081 15.7265L7.95246 15.7254L7.95247 15.7254C8.82236 15.1491 9.93178 14.8823 11.0031 14.8823ZM8.71271 16.8712C8.21045 17.2063 8.05029 17.5799 8.05029 17.8661C8.05029 18.1524 8.21063 18.5263 8.71352 18.8615L8.71435 18.8621C9.31105 19.2611 10.1373 19.4817 10.9997 19.4817C11.862 19.4817 12.6883 19.2611 13.285 18.8621L13.2858 18.8615C13.7887 18.5263 13.949 18.1524 13.949 17.8661C13.949 17.5798 13.7887 17.2059 13.2858 16.8706C12.6945 16.4764 11.8684 16.2573 11.0031 16.2573C10.1384 16.2573 9.30942 16.4761 8.71271 16.8712Z" fill="#F1F1F1"/>
</svg>
