<svg width="41" height="41" viewBox="0 0 41 41" fill="none" xmlns="http://www.w3.org/2000/svg">
<rect x="1" y="1" width="39" height="39" rx="19.5" fill="#D8E8FD" fill-opacity="0.6"/>
<rect x="1" y="1" width="39" height="39" rx="19.5" stroke="#245FAE"/>
<path d="M20.4998 17.8337C22.8931 17.8337 24.8332 15.8936 24.8332 13.5003C24.8332 11.1071 22.8931 9.16699 20.4998 9.16699C18.1066 9.16699 16.1665 11.1071 16.1665 13.5003C16.1665 15.8936 18.1066 17.8337 20.4998 17.8337Z" stroke="#211E1E" stroke-width="2.75"/>
<path opacity="0.5" d="M29.3891 26.833C29.3891 29.5945 29.3891 31.833 20.5002 31.833C11.6113 31.833 11.6113 29.5945 11.6113 26.833C11.6113 24.0716 15.591 21.833 20.5002 21.833C25.4094 21.833 29.3891 24.0716 29.3891 26.833Z" stroke="#211E1E" stroke-width="2.75"/>
</svg>
