<svg width="22" height="22" viewBox="0 0 22 22" fill="none" xmlns="http://www.w3.org/2000/svg">
<g clip-path="url(#clip0_192_4176)">
<path d="M20.625 3.4375H8.25V1.375C8.25 1.19266 8.17757 1.0178 8.04864 0.888864C7.9197 0.759933 7.74484 0.6875 7.5625 0.6875H2.9425C2.34444 0.6875 1.77087 0.92508 1.34797 1.34797C0.92508 1.77087 0.6875 2.34444 0.6875 2.9425V14.9325C0.6875 15.5306 0.92508 16.1041 1.34797 16.527C1.77087 16.9499 2.34444 17.1875 2.9425 17.1875H5.6925C6.00243 18.3615 6.69214 19.3999 7.65407 20.1409C8.61601 20.8818 9.7961 21.2836 11.0103 21.2836C12.2245 21.2836 13.4046 20.8818 14.3666 20.1409C15.3285 19.3999 16.0182 18.3615 16.3281 17.1875H19.0781C19.6726 17.1821 20.2409 16.9421 20.6593 16.5198C21.0778 16.0975 21.3125 15.527 21.3125 14.9325V4.125C21.3125 3.94266 21.2401 3.7678 21.1111 3.63886C20.9822 3.50993 20.8073 3.4375 20.625 3.4375ZM11 19.9375C10.1842 19.9375 9.38663 19.6956 8.70827 19.2423C8.02992 18.7891 7.50121 18.1448 7.189 17.3911C6.87679 16.6373 6.7951 15.8079 6.95426 15.0078C7.11343 14.2076 7.50629 13.4726 8.08318 12.8957C8.66008 12.3188 9.39508 11.9259 10.1953 11.7668C10.9954 11.6076 11.8248 11.6893 12.5786 12.0015C13.3323 12.3137 13.9766 12.8424 14.4298 13.5208C14.8831 14.1991 15.125 14.9967 15.125 15.8125C15.125 16.9065 14.6904 17.9557 13.9168 18.7293C13.1432 19.5029 12.094 19.9375 11 19.9375ZM19.9375 6.875H12.375C12.1927 6.875 12.0178 6.94743 11.8889 7.07636C11.7599 7.2053 11.6875 7.38016 11.6875 7.5625C11.6875 7.74484 11.7599 7.9197 11.8889 8.04864C12.0178 8.17757 12.1927 8.25 12.375 8.25H19.9375V14.9325C19.9375 15.1659 19.8448 15.3897 19.6798 15.5548C19.5147 15.7198 19.2909 15.8125 19.0575 15.8125H16.5C16.5 14.3538 15.9205 12.9549 14.8891 11.9234C13.8576 10.892 12.4587 10.3125 11 10.3125C9.54131 10.3125 8.14236 10.892 7.11091 11.9234C6.07946 12.9549 5.5 14.3538 5.5 15.8125H2.9425C2.70911 15.8125 2.48528 15.7198 2.32025 15.5548C2.15521 15.3897 2.0625 15.1659 2.0625 14.9325V2.9425C2.0625 2.70911 2.15521 2.48528 2.32025 2.32025C2.48528 2.15521 2.70911 2.0625 2.9425 2.0625H6.875V4.125C6.875 4.30734 6.94743 4.4822 7.07636 4.61114C7.2053 4.74007 7.38016 4.8125 7.5625 4.8125H19.9375V6.875Z" fill="white"/>
<path d="M6.18772 7.56209C6.18772 7.74443 6.26016 7.9193 6.38909 8.04823C6.51802 8.17716 6.69289 8.24959 6.87522 8.24959H9.62522C9.80756 8.24959 9.98243 8.17716 10.1114 8.04823C10.2403 7.9193 10.3127 7.74443 10.3127 7.56209C10.3127 7.37976 10.2403 7.20489 10.1114 7.07596C9.98243 6.94703 9.80756 6.87459 9.62522 6.87459H6.87522C6.69289 6.87459 6.51802 6.94703 6.38909 7.07596C6.26016 7.20489 6.18772 7.37976 6.18772 7.56209ZM4.50335 6.99147C4.46833 6.96414 4.42876 6.94319 4.38647 6.92959C4.34631 6.9041 4.30215 6.88551 4.25585 6.87459C4.16762 6.8543 4.07595 6.8543 3.98772 6.87459C3.94468 6.88222 3.90298 6.89611 3.86397 6.91584C3.8201 6.93074 3.77846 6.95155 3.74022 6.97772L3.6371 7.06022C3.57171 7.12608 3.52034 7.20451 3.48607 7.29076C3.45181 7.37701 3.43536 7.46931 3.43772 7.56209C3.4372 7.65257 3.45454 7.74227 3.48876 7.82603C3.52297 7.90979 3.57338 7.98598 3.6371 8.05022C3.70392 8.11095 3.78066 8.15978 3.86397 8.19459C3.94627 8.23097 4.03525 8.24975 4.12522 8.24975C4.2152 8.24975 4.30418 8.23097 4.38647 8.19459C4.46973 8.15966 4.54644 8.11084 4.61335 8.05022C4.67707 7.98598 4.72748 7.90979 4.76169 7.82603C4.7959 7.74227 4.81325 7.65257 4.81272 7.56209C4.81019 7.38007 4.73898 7.20572 4.61335 7.07397L4.50335 6.99147ZM13.0627 15.1246H11.6877V13.0621C11.6877 12.8798 11.6153 12.7049 11.4864 12.576C11.3574 12.447 11.1826 12.3746 11.0002 12.3746C10.8179 12.3746 10.643 12.447 10.5141 12.576C10.3852 12.7049 10.3127 12.8798 10.3127 13.0621V15.8121C10.3127 15.9944 10.3852 16.1693 10.5141 16.2982C10.643 16.4272 10.8179 16.4996 11.0002 16.4996H13.0627C13.2451 16.4996 13.4199 16.4272 13.5489 16.2982C13.6778 16.1693 13.7502 15.9944 13.7502 15.8121C13.7502 15.6298 13.6778 15.4549 13.5489 15.326C13.4199 15.197 13.2451 15.1246 13.0627 15.1246Z" fill="white"/>
</g>
<defs>
<clipPath id="clip0_192_4176">
<rect width="22" height="22" fill="white"/>
</clipPath>
</defs>
</svg>
