<svg width="15" height="15" viewBox="0 0 15 15" fill="none" xmlns="http://www.w3.org/2000/svg">
<path d="M7.5 0L7.14375 0.16875L0.58125 2.925L0 3.16875V3.75C0 6.8625 1.25625 9.6 2.75625 11.6062C3.50625 12.6 4.3125 13.425 5.1 14.0062C5.8875 14.5875 6.65625 15 7.5 15C8.3625 15 9.1125 14.5875 9.9 14.0062C10.6875 13.425 11.4938 12.6 12.2438 11.6062C13.7438 9.6 15 6.8625 15 3.75V3.16875L14.4187 2.925L7.85625 0.16875L7.5 0ZM7.5 2.04375V13.125C7.425 13.125 6.88125 12.9938 6.2625 12.5437C5.64375 12.0938 4.93125 11.3625 4.275 10.5C2.94335 8.70915 2.14983 6.57578 1.9875 4.35L7.5 2.0625V2.04375Z" fill="#0B0B0B"/>
</svg>
