<svg width="24" height="24" viewBox="0 0 24 24" fill="none" xmlns="http://www.w3.org/2000/svg">
<path d="M3 8C3 8 6 6 9 8C12 10 15 8 18 8C19 8 20 9 20 10" stroke="#0594B4" stroke-width="2" fill="none"/>
<path d="M3 12C3 12 6 10 9 12C12 14 15 12 18 12C19 12 20 13 20 14" stroke="#0594B4" stroke-width="2" fill="none"/>
<path d="M3 16C3 16 6 14 9 16C12 18 15 16 18 16C19 16 20 17 20 18" stroke="#0594B4" stroke-width="2" fill="none"/>
<path d="M18 4L20 6L18 8" stroke="#0594B4" stroke-width="1.5" fill="none"/>
</svg>